<?xml version="1.0" standalone="no"?><!DOCTYPE svg PUBLIC "-//W3C//DTD SVG 1.1//EN" "http://www.w3.org/Graphics/SVG/1.1/DTD/svg11.dtd"><svg t="1730483041193" class="icon" viewBox="0 0 1024 1024" version="1.1" xmlns="http://www.w3.org/2000/svg" p-id="4435" width="48" height="48" xmlns:xlink="http://www.w3.org/1999/xlink"><path d="M758.72 128H697.6v-6.4a41.6 41.6 0 0 0-83.2 0V128h-188.8v-6.4a41.6 41.6 0 0 0-83.2 0V128H265.28A114.88 114.88 0 0 0 150.4 241.28V832a114.88 114.88 0 0 0 114.88 114.88h493.44A114.88 114.88 0 0 0 873.6 832V241.28A114.88 114.88 0 0 0 758.72 128z m32 704a32 32 0 0 1-32 32H265.28a32 32 0 0 1-32-32V241.28a32 32 0 0 1 32-32h77.12v6.4a41.6 41.6 0 0 0 83.2 0v-6.4h188.8v6.4a41.6 41.6 0 1 0 83.2 0v-6.4h61.12a32 32 0 0 1 32 32z" p-id="4436" fill="#ffffff"></path><path d="M352 417.6h160a41.6 41.6 0 0 0 0-83.2h-160a41.6 41.6 0 0 0 0 83.2zM672 494.4H352a41.6 41.6 0 0 0 0 83.2h320a41.6 41.6 0 0 0 0-83.2zM672 654.4H352a41.6 41.6 0 0 0 0 83.2h320a41.6 41.6 0 0 0 0-83.2z" p-id="4437" fill="#ffffff"></path></svg>