<svg xmlns="http://www.w3.org/2000/svg" fill="none" viewBox="0 0 1024 1024" height="1024" width="1024">
<rect fill="white" height="1024" width="1024"></rect>
<path fill="#D9B1AC" d="M186.394 74.435C219.192 68.79 254.242 72.6844 283.61 89.0121C300.616 98.1942 316.515 110.949 325.269 128.599C346.42 172.58 340.917 228.101 311.442 267.044C301.152 281.157 285.575 289.624 271.427 299.235C280.001 310.061 290.041 319.957 296.936 332.069C306.154 349.647 295.221 378.694 272.749 377.372C257.243 379.909 243.202 371.62 233.055 360.652C219.085 348.004 210.046 331.212 197.434 317.492C187.18 308.953 172.996 308.167 160.849 303.594C119.44 291.804 89.1426 252.003 85.2839 209.665C83.2474 181.476 92.3581 153.358 106.435 129.242C124.942 102.017 153.596 80.4731 186.394 74.435ZM146.45 94.2998C120.44 109.913 105.149 137.888 95.4664 165.756C74.1011 220.098 110.472 288.981 167.637 301.522C178.212 305.023 190.324 305.345 199.506 312.097C215.584 329.497 225.695 352.327 245.202 366.583C254.456 373.156 266.996 378.516 278.108 373.121C291.256 368.297 300.331 352.934 294.721 339.358C287.004 323.53 273.928 311.204 263.424 297.306C271.784 292.733 280.251 288.195 288.04 282.657C326.341 254.647 338.452 202.055 330.092 157.217C323.839 126.634 301.938 100.016 273.249 87.833C233.198 70.4692 184.143 71.3624 146.45 94.2998Z"></path>
<path fill="#D9B1AC" d="M398.618 199.769C404.585 183.941 416.661 168.292 434.418 165.827C468.002 161.432 499.872 176.224 529.562 189.908C546.461 199.268 565.254 189.229 582.903 188.264C640.997 183.298 702.056 190.551 753.647 219.205C776.049 231.031 797.45 245.858 813.17 266.008C818.922 272.618 824.246 281.228 833.856 282.336C861.974 288.124 892.414 289.517 917.138 305.702C935.931 318.099 940.969 342.68 939.29 363.796C935.753 409.063 922.891 454.402 897.595 492.452C892.915 500.241 886.805 507.886 886.091 517.318C884.804 534.253 887.02 551.439 883.554 568.231C877.838 596.527 868.62 624.252 854.936 649.691C844.646 669.734 830.212 687.812 824.21 709.892C849.077 718.538 876.98 721.861 897.881 739.225C912.601 751.765 926.32 766.557 933.966 784.635C946.828 811.395 924.57 848.409 894.451 848.088C885.019 848.445 875.515 847.052 866.155 848.195C854.436 854.34 845.611 865.916 832.07 868.417C813.92 871.525 795.485 869.025 777.263 868.489C764.151 896.071 738.784 918.007 708.344 923.51C688.622 928.762 668.329 924.975 648.607 922.116C636.888 936.943 620.954 950.484 601.16 951.377C541.637 954.45 482.508 945.411 423.378 940.373C383.72 935.871 342.061 930.155 308.691 906.539C275.536 884.566 257.993 846.98 244.059 811.145C222.587 753.623 216.084 691.278 222.265 630.397C226.481 599.421 239.415 568.302 265.246 549.295C279.144 536.076 299.188 536.504 316.802 532.86C312.657 514.853 308.084 496.168 312.3 477.732C315.801 453.901 326.162 431.857 338.881 411.671C353.137 389.091 362.355 363.903 375.038 340.501C386.685 319.243 379.469 294.376 382.077 271.439C384.756 247.037 389.937 222.742 398.618 199.769ZM401.834 204.127C389.937 235.568 383.863 269.402 385.435 303.022C385.578 316.206 387.114 330.497 379.754 342.251C364.784 368.333 353.637 396.379 337.917 422.068C325.948 441.79 317.766 464.12 316.337 487.271C315.265 504.063 319.553 520.534 322.411 536.969C305.083 537.362 285.968 536.933 271.57 548.223C243.488 568.338 231.197 602.851 225.803 635.65C218.192 691.492 228.339 748.157 245.524 801.32C259.744 841.335 279.001 883.316 316.266 906.789C357.674 932.799 408.158 933.942 455.319 939.158C503.837 943.374 552.499 951.127 601.303 947.126C620.775 945.375 634.888 930.476 645.57 915.471C652.859 917.043 660.147 918.758 667.543 920.187C692.981 925.975 720.027 918.329 741.464 904.288C757.077 894.356 765.652 877.492 774.084 861.7C792.376 864.594 811.205 868.381 829.605 864.416C843.503 861.129 853.685 850.482 863.796 841.121C875.051 842.764 886.448 845.301 897.917 843.765C920.247 839.227 937.003 815.254 931.537 792.638C926.892 774.453 914.959 758.732 901.168 746.37C877.373 725.577 845.004 721.468 816.671 709.856C825.175 690.742 836.322 672.985 846.504 654.764C868.155 614.927 884.519 570.375 881.732 524.393C880.41 512.817 884.412 501.848 891.379 492.773C917.174 455.902 929.107 411.421 935.038 367.333C937.825 345.288 931.537 319.421 911.529 307.167C886.698 292.268 857.008 290.911 829.39 285.051C817.922 282.979 812.312 271.582 804.845 263.972C774.477 227.958 729.209 209.236 684.692 197.696C651.787 188.729 617.274 189.479 583.582 191.408C566.075 192.373 547.89 203.127 530.883 194.659C502.515 181.583 472.754 166.148 440.563 169.042C421.342 170.436 408.194 187.371 401.834 204.127Z"></path>
<path fill="#FCFAF8" d="M401.834 204.127C408.193 187.37 421.341 170.435 440.563 169.042C472.754 166.148 502.515 181.582 530.883 194.659C547.889 203.126 566.075 192.372 583.582 191.408C617.273 189.478 651.786 188.728 684.692 197.696C729.209 209.236 774.476 227.957 804.845 263.971C812.312 271.581 817.921 282.978 829.39 285.051C857.008 290.91 886.698 292.268 911.529 307.166C931.536 319.421 937.824 345.288 935.038 367.332C929.107 411.42 917.174 455.902 891.378 492.773C884.411 501.848 880.41 512.816 881.731 524.392C884.518 570.374 868.155 614.927 846.504 654.763C836.321 672.985 825.174 690.741 816.671 709.856C845.003 721.467 877.373 725.576 901.167 746.37C914.958 758.732 926.892 774.452 931.536 792.638C937.003 815.253 920.246 839.227 897.916 843.764C886.447 845.301 875.05 842.764 863.796 841.12C853.685 850.481 843.502 861.128 829.604 864.415C811.204 868.381 792.376 864.594 774.083 861.7C765.651 877.491 757.077 894.355 741.463 904.288C720.027 918.329 692.981 925.974 667.542 920.186C660.147 918.757 652.858 917.042 645.57 915.47C634.887 930.476 620.775 945.375 601.303 947.125C552.498 951.127 503.837 943.374 455.318 939.158C408.158 933.942 357.674 932.798 316.265 906.788C279.001 883.315 259.744 841.335 245.524 801.32C228.339 748.156 218.192 691.492 225.802 635.649C231.197 602.851 243.487 568.337 271.569 548.223C285.968 536.933 305.082 537.361 322.41 536.968C319.552 520.533 315.265 504.063 316.337 487.271C317.766 464.119 325.947 441.789 337.916 422.067C353.637 396.379 364.784 368.332 379.754 342.251C387.114 330.496 385.577 316.205 385.435 303.022C383.863 269.402 389.936 235.567 401.834 204.127ZM413.481 211.201C402.977 241.784 398.297 274.296 399.44 306.63C398.797 319.135 402.012 332.64 395.867 344.252C382.433 371.119 368.928 397.987 354.101 424.14C344.812 440.86 335.63 458.617 334.558 478.16C333.665 493.63 333.629 509.208 335.523 524.642C337.023 537.576 343.597 550.188 340.381 563.407C327.412 560.334 315.193 553.01 301.474 554.225C284.253 554.404 270.176 567.016 260.994 580.485C243.845 607.281 240.879 640.079 239.379 671.055C240.915 717.609 249.275 764.091 265.103 808.001C276.678 841.192 295.579 873.669 326.162 892.569C359.532 912.791 399.654 913.648 437.276 918.364C482.507 921.544 527.56 927.118 572.899 929.368C589.727 929.904 609.413 929.797 621.739 916.435C630.064 908.61 631.493 896.713 633.244 886.066C653.287 895.856 674.795 905.038 697.697 901.393C722.42 897.928 748.681 881.85 754.754 856.162C755.648 843.729 770.332 842.049 780.121 840.763C791.947 843.264 803.201 849.445 815.671 848.23C835.464 848.052 853.078 835.189 861.652 817.683C875.193 825.722 894.201 831.545 907.491 819.827C916.673 813.36 916.138 800.569 913.315 790.994C902.454 769.843 884.804 751.765 862.867 742.225C839.179 731.471 812.812 728.22 787.052 730.364C777.692 732.472 765.473 726.255 763.972 716.716C785.873 706.712 811.848 695.35 818.743 669.805C821.28 655.657 832.284 645.867 838.751 633.613C851.184 610.782 858.615 585.523 863.367 560.049C866.69 540.791 863.617 521.141 865.797 501.919C874.121 485.77 886.412 471.872 893.307 454.865C908.527 419.638 921.89 381.516 918.067 342.537C917.174 330.103 906.884 320.886 896.201 315.991C872.299 304.665 845.468 301.878 819.422 300.163C813.027 300.699 809.525 295.197 806.381 290.731C783.122 255.682 745.143 233.424 706.343 219.454C654.966 202.197 598.052 199.411 545.924 215.167C541.637 216.31 536.885 217.096 532.991 214.416C504.694 198.768 474.469 180.546 440.956 182.547C425.771 183.297 418.161 198.767 413.481 211.201Z"></path>
<path fill="#FCFAF7" d="M480.721 448.721C486.474 453.008 492.19 457.581 496.656 463.369C496.692 465.334 496.727 469.228 496.727 471.158C491.082 463.905 485.616 456.474 480.721 448.721Z"></path>
<path fill="#FCFAF7" d="M680.798 507.136C689.516 509.566 699.234 510.209 706.701 515.854C713.489 520.891 715.418 529.609 718.42 537.076C716.883 536.969 713.775 536.719 712.239 536.576C706.308 522.678 695.125 511.995 680.798 507.136Z"></path>
<path fill="#F4DECA" d="M749.645 258.755C766.58 269.724 780.872 284.336 792.555 300.771C788.732 303.451 784.945 306.095 781.122 308.739C816.207 318.6 854.4 315.277 888.056 330.426C870.478 347.075 855.329 368.333 832.606 378.158C810.133 383.803 804.774 408.813 794.198 426.212C774.405 383.124 739.213 348.04 696.554 327.639C711.452 302.629 730.745 280.764 749.645 258.755Z"></path>
<path fill="#311B2F" d="M191.789 133.85C205.044 131.921 211.582 146.176 220.014 153.679C232.519 155.823 246.667 152.893 257.528 161.254C272.355 171.9 272.606 192.373 270.39 208.736C265.496 236.639 235.591 254.325 208.581 251.967C177.426 249.823 145.057 221.884 148.701 188.693C146.772 163.147 165.35 136.351 191.789 133.85ZM157.812 163.719C144.164 189.764 155.739 223.528 180.82 237.962C208.581 258.791 255.599 246.715 265.781 212.416C268.925 196.696 270.676 176.545 256.921 165.148C246.024 155.323 230.518 158.86 217.227 158.502C210.546 150.571 204.794 140.138 194.075 137.387C178.355 139.031 164.386 149.428 157.812 163.719Z"></path>
<path fill="#311B2F" d="M167.387 168.435C181.606 164.183 192.861 177.367 189.645 191.086C183.357 190.193 175.247 192.873 170.709 187.192C165.779 182.262 168.173 174.545 167.387 168.435ZM176.068 176.009C171.602 179.368 176.747 187.657 181.606 184.191C185.822 180.761 180.892 172.329 176.068 176.009Z"></path>
<path fill="#F2DDC9" d="M631.065 228.994C636.853 221.705 647.249 223.492 655.467 222.849C666.65 224.635 677.654 227.708 688.694 230.423C676.26 242.713 662.684 254.182 652.859 268.795C645.034 280.299 642.069 294.162 638.71 307.452C626.741 305.13 614.773 302.879 602.804 300.664C606.841 275.19 613.879 248.894 631.065 228.994Z"></path>
<path fill="#F3DDC8" d="M392.581 665.732C393.867 666.947 396.439 669.412 397.725 670.663C414.517 688.313 436.526 699.352 456.891 712.25C473.826 722.79 491.44 732.758 510.733 738.367C515.663 739.832 520.701 741.047 525.524 743.012C546.64 752.301 567.898 761.305 588.834 771.058C587.941 774.56 587.048 778.132 586.19 781.741C590.263 782.956 594.336 784.206 598.445 785.528C590.728 794.782 583.654 804.535 577.044 814.611C555.393 807.894 534.063 799.676 511.733 795.675C501.587 793.674 492.047 798.676 482.794 801.999C468.038 789.923 457.141 774.167 446.744 758.411C442.278 751.694 437.312 745.298 432.274 739.118C420.198 761.733 444.458 783.777 437.562 807.394C436.919 809.287 435.704 813.146 435.097 815.039C456.069 814.611 477.435 813.289 497.978 818.541C536.136 827.652 572.578 844.765 602.875 869.81C616.059 878.242 618.31 896.213 609.521 908.718C555.643 890.89 498.228 889.961 442.743 879.814C409.766 873.383 374.788 869.989 345.92 851.339C350.171 833.082 345.491 814.396 346.706 795.961C347.885 771.809 357.889 749.264 368.893 728.149C378.254 710.106 392.259 693.1 391.973 671.699C392.116 670.198 392.438 667.197 392.581 665.732Z"></path>
<path fill="#F3DECA" d="M176.069 176.009C180.892 172.329 185.822 180.761 181.607 184.191C176.748 187.657 171.603 179.368 176.069 176.009Z"></path>
<path fill="#F1D8C6" d="M288.184 645.081C299.759 644.867 311.407 644.653 322.947 646.153C326.913 646.797 330.914 647.547 334.88 648.404C335.059 665.446 333.951 682.846 338.238 699.531C340.596 711.285 347.671 723.862 340.632 735.473C319.017 777.668 316.766 827.258 328.413 872.74C310.442 858.02 294.043 838.62 287.898 816.004C289.291 786.6 282.789 757.589 283.146 728.256C282.503 700.388 288.434 672.914 288.184 645.081Z"></path>
<path fill="#D8B2AC" d="M683.191 563.872C693.695 563.515 704.235 562.729 714.739 561.55C717.097 564.158 719.526 566.766 721.956 569.446C711.488 572.768 701.091 576.27 690.801 579.95C699.34 588.81 708.487 597.099 718.169 604.745C713.095 606.746 708.022 608.782 702.984 610.89C716.061 621.108 729.352 631.076 742.321 641.473C738.462 645.582 734.675 649.798 730.674 653.799C706.236 661.088 680.44 662.445 655.073 662.553C635.566 662.41 615.88 662.838 596.658 658.908C606.662 658.051 616.63 656.622 626.598 655.336C620.882 654.192 615.165 653.121 609.484 652.084C629.849 643.688 649.464 633.613 669.507 624.502C677.618 620.572 685.049 615.535 692.552 610.604C689.015 596.385 688.55 581.629 691.516 567.302C688.693 566.123 685.942 564.98 683.191 563.872Z"></path>
<path fill="#F3DBC6" d="M585.333 826.116C593.693 805.929 607.52 787.565 627.027 777.061C633.03 776.346 638.21 780.634 643.748 782.527C666.292 793.317 690.48 800.999 711.703 814.504C726.851 824.615 740.535 842.908 734.961 862.022C730.567 869.418 722.814 873.705 715.883 878.35C710.166 867.489 702.306 857.77 691.481 851.732C694.482 857.77 697.769 863.665 700.984 869.703C685.478 872.812 671.902 863.165 658.682 856.806C635.245 844.265 610.592 834.226 585.333 826.116Z"></path>
<path fill="#FCF9F8" d="M146.451 94.2997C184.144 71.3624 233.198 70.4692 273.249 87.8329C301.939 100.016 323.84 126.633 330.092 157.217C338.453 202.055 326.341 254.647 288.041 282.657C280.252 288.195 271.785 292.733 263.424 297.306C273.928 311.204 287.005 323.53 294.722 339.358C300.331 352.934 291.256 368.297 278.108 373.121C266.997 378.515 254.456 373.156 245.203 366.583C225.695 352.327 215.584 329.497 199.507 312.097C190.325 305.345 178.213 305.023 167.638 301.522C110.473 288.981 74.1018 220.098 95.4671 165.756C105.149 137.888 120.441 109.913 146.451 94.2997ZM156.883 108.519C131.731 124.383 115.153 152 109.687 180.94C103.256 208.272 113.903 237.39 131.91 258.184C150.631 279.692 179.321 290.16 207.367 290.946C223.195 311.49 238.343 332.82 256.779 351.148C262.781 358.472 272.571 356.078 280.109 352.97C268.819 329.532 247.168 312.99 236.021 289.374C245.739 285.337 255.6 281.55 264.853 276.512C314.944 249.895 330.486 176.581 298.795 130.635C266.068 89.4049 200.757 79.8655 156.883 108.519Z"></path>
<path fill="#271B2D" d="M156.883 108.519C200.757 79.8653 266.068 89.4047 298.795 130.635C330.485 176.581 314.944 249.895 264.853 276.512C255.599 281.55 245.738 285.337 236.02 289.374C247.168 312.99 268.819 329.532 280.109 352.97C272.57 356.078 262.781 358.472 256.778 351.148C238.343 332.819 223.194 311.49 207.367 290.946C179.32 290.16 150.631 279.692 131.909 258.184C113.902 237.39 103.255 208.272 109.686 180.94C115.153 152 131.731 124.382 156.883 108.519ZM199.149 108.877C153.703 116.344 118.261 163.433 124.728 209.2C131.087 240.82 158.241 266.258 189.431 273.118C206.759 277.548 224.945 273.439 241.701 268.366C270.605 259.184 291.649 231.888 296.008 202.269C297.687 182.226 298.616 160.039 286.218 142.925C266.782 116.236 231.233 104.196 199.149 108.877Z"></path>
<path fill="#F3E3D8" d="M199.149 108.877C231.233 104.196 266.782 116.236 286.218 142.925C298.616 160.039 297.687 182.226 296.008 202.269C291.649 231.888 270.605 259.184 241.701 268.366C224.945 273.439 206.759 277.548 189.431 273.118C158.241 266.258 131.087 240.82 124.728 209.201C118.261 163.433 153.703 116.344 199.149 108.877ZM191.789 133.85C165.35 136.351 146.772 163.147 148.701 188.693C145.057 221.884 177.427 249.823 208.581 251.967C235.592 254.325 265.496 236.64 270.391 208.736C272.606 192.373 272.356 171.901 257.529 161.254C246.667 152.893 232.519 155.823 220.014 153.679C211.583 146.177 205.044 131.921 191.789 133.85Z"></path>
<path fill="#F5C4A4" d="M157.812 163.719C164.386 149.428 178.355 139.031 194.076 137.387C204.794 140.139 210.546 150.571 217.227 158.503C230.518 158.86 246.024 155.323 256.921 165.148C270.676 176.545 268.926 196.696 265.782 212.416C255.599 246.715 208.581 258.791 180.821 237.962C155.74 223.528 144.164 189.765 157.812 163.719ZM167.387 168.435C168.173 174.545 165.779 182.262 170.709 187.192C175.247 192.873 183.357 190.193 189.645 191.086C192.861 177.367 181.607 164.183 167.387 168.435ZM212.761 212.559C219.335 214.595 227.553 219.312 233.805 213.881C240.2 209.772 242.63 202.412 243.773 195.303C236.663 198.84 229.982 203.091 222.979 206.807C224.98 200.662 227.303 194.624 229.339 188.55C218.907 192.373 211.725 201.09 212.761 212.559Z"></path>
<path fill="#27182B" d="M413.481 211.201C418.162 198.768 425.772 183.298 440.956 182.548C474.469 180.547 504.695 198.768 532.991 214.417C536.886 217.096 541.638 216.311 545.925 215.167C598.052 199.411 654.966 202.198 706.343 219.454C745.144 233.424 783.123 255.683 806.382 290.732C809.526 295.198 813.027 300.7 819.422 300.164C845.468 301.879 872.3 304.666 896.202 315.991C906.884 320.886 917.174 330.104 918.067 342.537C921.89 381.516 908.528 419.638 893.308 454.866C886.412 471.872 874.122 485.771 865.797 501.92C863.618 521.141 866.69 540.792 863.368 560.049C858.616 585.523 851.184 610.783 838.751 633.613C832.284 645.868 821.28 655.657 818.744 669.805C811.848 695.351 785.874 706.712 763.972 716.716C765.473 726.256 777.692 732.472 787.053 730.364C812.813 728.22 839.18 731.472 862.867 742.226C884.804 751.765 902.454 769.844 913.316 790.995C916.138 800.57 916.674 813.36 907.492 819.827C894.201 831.546 875.194 825.722 861.653 817.683C853.078 835.19 835.464 848.052 815.671 848.231C803.202 849.446 791.948 843.264 780.122 840.764C770.332 842.05 755.648 843.729 754.755 856.162C748.681 881.851 722.421 897.928 697.697 901.394C674.796 905.038 653.287 895.856 633.244 886.067C631.493 896.713 630.064 908.611 621.74 916.435C609.413 929.798 589.727 929.905 572.899 929.369C527.561 927.118 482.508 921.544 437.276 918.365C399.655 913.648 359.532 912.791 326.162 892.569C295.579 873.669 276.679 841.192 265.103 808.001C249.276 764.091 240.915 717.609 239.379 671.056C240.88 640.08 243.845 607.281 260.995 580.485C270.177 567.016 284.253 554.404 301.474 554.225C315.194 553.011 327.413 560.335 340.382 563.407C343.597 550.188 337.024 537.576 335.523 524.643C333.629 509.208 333.665 493.631 334.558 478.161C335.63 458.617 344.812 440.861 354.102 424.14C368.929 397.987 382.434 371.12 395.868 344.252C402.013 332.641 398.797 319.135 399.44 306.631C398.297 274.297 402.977 241.784 413.481 211.201ZM440.778 196.803C448.781 219.919 462.429 241.034 467.931 265.043C467.859 266.651 467.716 269.902 467.645 271.51C456.498 251.645 451.675 228.387 436.74 210.701C437.026 208.772 437.633 204.949 437.955 203.055C433.953 206.628 429.13 209.951 427.737 215.489C415.303 249.287 415.232 286.087 418.197 321.529C422.199 316.313 427.915 311.99 429.773 305.523C432.524 305.63 435.275 305.809 438.026 306.023C417.769 332.105 406.05 363.402 390.973 392.556C410.945 373.156 424.343 347.611 446.744 330.604C471.111 311.097 502.372 303.665 532.598 299.163C556 297.877 579.509 297.806 602.804 300.664C614.773 302.879 626.741 305.13 638.71 307.452C658.432 312.847 677.69 319.707 696.554 327.639C739.213 348.039 774.405 383.124 794.198 426.212C808.49 463.155 816.135 502.741 814.814 542.435C815.742 579.521 807.275 619.322 779.943 646.189C747.931 665.661 710.095 672.878 673.045 673.414C584.94 675.629 494.762 661.159 415.482 621.394C394.117 611.64 377.932 594.598 361.497 578.449C363.391 585.523 365.106 593.026 369.857 598.957C386.078 620.644 410.516 633.899 434.704 644.903C488.367 668.733 546.211 683.453 604.84 687.419C665.292 691.885 729.352 691.671 785.302 665.339C799.522 657.658 812.741 647.368 820.816 633.113C843.11 595.17 852.756 550.474 850.613 506.671C851.97 473.444 841.967 441.54 836.393 409.206C839.68 415.994 843.825 422.318 847.576 428.892C850.256 442.754 853.614 456.545 858.33 469.907C875.98 445.005 888.127 416.53 896.773 387.376C901.061 371.477 905.884 354.256 899.239 338.286C898.203 336.642 896.094 333.355 895.058 331.712C875.015 350.54 856.437 371.12 833.285 386.375C832.999 383.589 832.785 380.873 832.606 378.158C855.329 368.333 870.478 347.075 888.056 330.425C854.4 315.277 816.207 318.6 781.122 308.739C784.945 306.095 788.732 303.451 792.555 300.771C780.872 284.336 766.581 269.724 749.646 258.755C730.888 246.25 710.416 236.425 688.694 230.423C677.654 227.708 666.65 224.635 655.467 222.849C634.566 219.169 613.272 219.133 592.157 219.526C570.97 222.563 549.926 226.922 529.669 233.889C504.123 214.131 473.54 198.304 440.778 196.803ZM529.276 305.237C492.404 310.025 455.14 324.995 430.488 353.827C427.665 357.364 423.985 361.009 423.843 365.903C405.728 384.696 391.401 406.669 375.86 427.57C361.068 447.363 349.778 470.836 349.278 495.989C348.206 519.212 356.46 541.649 367.107 561.943C389.579 599.814 431.631 618.929 471.504 632.97C511.983 646.261 553.999 656.907 596.659 658.908C615.88 662.838 635.566 662.41 655.074 662.552C680.441 662.445 706.236 661.088 730.674 653.799C752.004 649.547 772.833 639.472 785.266 620.929C793.698 602.887 800.415 583.844 801.916 563.836C805.31 520.462 803.059 475.874 788.339 434.608C776.227 404.061 756.398 376.443 730.21 356.471C694.053 328.425 649.5 312.955 604.626 306.059C579.795 302.093 553.928 298.02 529.276 305.237ZM296.186 567.552C276.965 578.342 266.889 598.457 260.423 618.643C253.277 647.654 254.206 677.88 257.636 707.355C262.709 744.548 270.176 782.527 287.898 816.004C294.043 838.62 310.442 858.02 328.413 872.74C316.766 827.258 319.017 777.668 340.632 735.473C347.67 723.862 340.596 711.285 338.238 699.531C333.951 682.846 335.059 665.446 334.88 648.404C334.987 639.043 334.987 629.754 335.023 620.465C334.701 605.602 336.309 587.845 324.09 576.948C316.766 569.445 306.012 568.481 296.186 567.552ZM353.78 594.527C351.35 627.432 351.029 660.98 355.388 693.779C365.892 684.132 373.144 671.735 381.719 660.48C372.001 649.833 362.319 638.436 357.996 624.395C356.066 614.498 356.995 604.173 353.78 594.527ZM366.285 612.783C371.429 624.752 377.325 637.007 387.614 645.51C415.304 668.305 448.495 683.489 482.794 693.457C560.573 717.967 643.927 723.647 724.529 712.179C752.075 707.391 782.944 699.388 799.986 675.272C780.908 679.773 762.936 687.991 743.715 691.957C675.796 706.712 605.341 700.71 537.493 688.563C494.441 679.523 452.532 664.732 413.16 645.046C395.903 636.757 381.683 623.823 366.285 612.783ZM392.581 665.732C392.438 667.197 392.116 670.198 391.973 671.699C380.219 683.525 373.037 698.781 365.106 713.215C354.638 733.723 344.669 754.731 338.631 777.061C332.2 799.248 335.416 822.578 335.523 845.301C338.488 859.521 340.025 875.42 350.207 886.674C367.857 896.213 388.722 896.535 408.158 899.822C450.817 903.145 493.369 907.218 535.957 911.398C560.395 912.434 585.619 915.721 609.521 908.718C618.31 896.213 616.059 878.242 602.875 869.81C572.578 844.765 536.136 827.651 497.978 818.541C477.434 813.289 456.069 814.611 435.097 815.039C435.704 813.146 436.919 809.287 437.562 807.394C448.388 805.929 459.285 804.857 470.217 803.892C461.535 789.458 444.815 776.811 446.744 758.411C457.141 774.167 468.038 789.923 482.794 801.999C513.698 807.822 543.21 818.541 571.613 831.903C573.4 826.079 575.15 820.327 577.044 814.611C583.653 804.535 590.728 794.782 598.445 785.528C603.84 780.848 609.163 776.06 614.451 771.273C585.797 759.375 557.286 743.691 525.524 743.012C520.701 741.047 515.663 739.832 510.733 738.367C511.912 736.259 514.306 732.115 515.485 730.043C532.634 728.864 550.176 732.865 567.076 729.221C594.908 752.837 631.851 760.447 664.22 775.774C673.259 780.312 682.406 784.671 691.588 789.03C698.876 772.738 705.307 756.088 713.024 740.046C713.31 742.262 713.882 746.728 714.168 748.978C710.166 763.412 705.414 777.632 701.27 792.066C715.132 800.462 728.959 809.823 738.177 823.543C741.428 826.794 743.25 832.439 747.966 833.832C758.47 828.723 768.582 822.578 780.193 820.22C797.092 831.153 818.994 835.547 837.572 825.936C831.498 812.86 817.35 807.429 807.775 797.497C822.816 797.104 834.428 807.501 845.932 815.682C847.326 810.859 851.185 805.536 847.147 800.927C840.002 789.851 827.568 783.849 816.671 777.168C798.486 767.486 780.407 757.232 765.152 743.226C756.505 736.474 749.574 727.256 739.82 722.182C731.746 722.182 723.921 724.183 716.168 725.898C679.011 731.222 641.247 732.043 603.84 729.042C592.907 728.328 581.653 724.79 570.863 728.113C556.643 722.218 541.102 721.504 526.31 717.788C499.371 711.214 472.683 703.425 446.78 693.529C429.881 687.098 414.446 677.487 397.725 670.663C396.439 669.412 393.867 666.947 392.581 665.732ZM792.162 744.155C808.597 762.269 834.142 768.129 851.077 785.921C863.582 798.462 881.482 815.968 900.382 805.429C903.311 791.495 891.093 781.277 883.018 771.809C860.331 747.049 824.281 740.368 792.162 744.155ZM585.333 826.115C584.904 830.152 584.511 834.261 584.154 838.406C604.126 852.554 625.348 865.058 647.928 874.669C665.649 882.637 685.657 889.961 704.807 882.172C704.343 877.849 703.95 873.705 703.557 869.489L700.984 869.703C697.769 863.665 694.482 857.77 691.481 851.732C702.306 857.77 710.166 867.488 715.883 878.349C722.814 873.705 730.567 869.417 734.961 862.022C740.535 842.907 726.851 824.615 711.702 814.504C690.48 800.998 666.292 793.317 643.748 782.527C638.21 780.633 633.03 776.346 627.027 777.061C607.52 787.565 593.693 805.929 585.333 826.115Z"></path>
<path fill="#131013" d="M212.761 212.559C211.725 201.09 218.907 192.373 229.339 188.55C227.303 194.624 224.98 200.662 222.98 206.807C229.982 203.091 236.663 198.84 243.773 195.303C242.63 202.413 240.201 209.772 233.805 213.881C227.553 219.312 219.335 214.596 212.761 212.559Z"></path>
<path fill="#F4DFCB" d="M440.777 196.803C473.54 198.304 504.123 214.131 529.668 233.889C549.926 226.922 570.97 222.563 592.157 219.526C585.225 231.281 577.222 242.463 571.077 254.647C564.682 267.259 562.895 281.443 560.537 295.198C551.212 296.448 541.887 297.663 532.598 299.164C502.372 303.665 471.11 311.097 446.744 330.604C424.342 347.611 410.944 373.156 390.972 392.556C406.05 363.402 417.768 332.105 438.026 306.023C447.494 294.162 458.605 283.693 467.644 271.51C467.716 269.902 467.859 266.651 467.93 265.043C462.428 241.034 448.78 219.919 440.777 196.803Z"></path>
<path fill="#ECE4E3" d="M427.736 215.489C429.13 209.951 433.953 206.628 437.955 203.056C437.633 204.949 437.026 208.772 436.74 210.701C428.665 241.749 432.631 273.94 429.773 305.523C427.915 311.99 422.199 316.313 418.197 321.529C415.232 286.087 415.303 249.287 427.736 215.489Z"></path>
<path fill="#978BA1" d="M429.773 305.523C432.631 273.94 428.665 241.749 436.74 210.701C451.674 228.387 456.497 251.645 467.644 271.51C458.605 283.693 447.494 294.162 438.026 306.023C435.275 305.809 432.524 305.63 429.773 305.523Z"></path>
<path fill="#A393A3" d="M592.157 219.526C613.272 219.133 634.566 219.169 655.466 222.849C647.249 223.492 636.852 221.705 631.064 228.994C613.879 248.894 606.841 275.19 602.803 300.664C579.509 297.806 556 297.877 532.598 299.163C541.887 297.663 551.212 296.448 560.537 295.198C562.895 281.442 564.682 267.258 571.077 254.647C577.222 242.463 585.225 231.28 592.157 219.526Z"></path>
<path fill="#988B9F" d="M688.694 230.423C710.416 236.425 730.888 246.25 749.645 258.755C730.745 280.764 711.452 302.629 696.554 327.639C677.689 319.707 658.432 312.847 638.71 307.452C642.069 294.162 645.034 280.299 652.859 268.795C662.684 254.182 676.26 242.713 688.694 230.423Z"></path>
<path fill="#786B80" d="M529.275 305.237C553.928 298.02 579.795 302.093 604.626 306.059C649.5 312.955 694.053 328.425 730.209 356.471C756.398 376.443 776.227 404.061 788.339 434.608C780.228 458.153 770.403 481.09 758.649 503.063C748.824 520.927 743.179 542.007 727.387 555.905C727.53 540.935 729.388 523.392 717.776 511.816C702.985 494.703 674.259 493.881 658.396 509.887C649.464 518.033 651.536 531.145 650.786 542.007C637.745 525.25 616.559 518.676 597.945 510.244C566.361 498.347 532.098 489.379 498.192 492.738C497.62 485.521 497.013 478.339 496.727 471.158C496.727 469.229 496.691 465.334 496.656 463.369C501.014 469.693 505.088 476.231 509.446 482.662C508.732 471.623 509.768 458.439 500.371 450.614C482.722 434.001 452.174 438.896 437.597 457.081C434.025 462.941 434.382 470.193 433.203 476.803C432.56 475.946 431.238 474.195 430.559 473.337C429.737 468.943 429.023 464.584 428.415 460.261C412.909 455.045 396.546 453.58 380.325 453.08C394.402 430.285 407.979 407.205 422.842 384.911C435.525 370.334 448.887 356.257 463.822 343.931C488.045 324.137 518.914 316.027 548.283 307.131C541.923 306.416 535.599 305.666 529.275 305.237ZM467.895 401.953C481.257 403.132 494.726 403.025 508.124 401.739C507.624 395.772 508.553 389.484 506.231 383.875C491.297 373.228 470.503 384.804 467.895 401.953Z"></path>
<path fill="#B1A5AA" d="M430.488 353.828C455.14 324.995 492.404 310.025 529.275 305.237C535.599 305.666 541.923 306.417 548.283 307.131C518.914 316.027 488.045 324.138 463.822 343.931C448.887 356.257 435.525 370.334 422.842 384.911C423.342 378.551 423.449 372.192 423.842 365.904C423.985 361.009 427.665 357.365 430.488 353.828Z"></path>
<path fill="#9C8395" d="M833.285 386.376C856.437 371.12 875.015 350.54 895.059 331.712C896.095 333.355 898.203 336.642 899.239 338.286C887.806 371.548 864.44 398.451 847.576 428.892C843.825 422.318 839.68 415.994 836.393 409.206C835 401.631 834.107 393.986 833.285 386.376Z"></path>
<path fill="#715977" d="M899.239 338.286C905.884 354.256 901.061 371.477 896.774 387.376C888.127 416.53 875.98 445.005 858.33 469.907C853.614 456.545 850.256 442.754 847.576 428.892C864.44 398.451 887.806 371.548 899.239 338.286Z"></path>
<path fill="#F4DDC7" d="M423.842 365.904C423.449 372.192 423.342 378.551 422.842 384.911C407.979 407.205 394.402 430.285 380.326 453.08C396.546 453.58 412.91 455.045 428.415 460.261C429.023 464.584 429.737 468.943 430.559 473.337C410.408 474.552 387.364 472.98 370.965 486.985C355.03 504.028 367.642 536.897 390.83 539.577C407.229 541.256 426.45 541.542 440.027 530.752C449.245 518.247 441.956 500.598 450.031 487.307C464.644 495.918 482.007 496.954 498.192 492.738C532.098 489.379 566.361 498.347 597.945 510.244C616.559 518.676 637.746 525.25 650.786 542.007C658.539 553.118 670.401 560.013 683.192 563.872C685.943 564.98 688.694 566.123 691.516 567.302C688.551 581.629 689.015 596.385 692.552 610.604C685.049 615.535 677.618 620.572 669.508 624.502C651.929 627.896 634.137 630.362 616.38 632.648C557.429 639.294 497.835 622.394 446.887 593.24C422.949 578.985 400.083 563.122 376.396 548.545C373.287 552.975 370.179 557.441 367.106 561.943C356.459 541.649 348.206 519.212 349.278 495.989C349.778 470.836 361.068 447.363 375.86 427.57C391.401 406.669 405.728 384.696 423.842 365.904ZM535.349 515.675C534.063 527.394 546.854 531.967 553.785 538.934C551.07 548.366 548.747 562.3 536.385 562.872C523.738 565.551 514.984 554.44 505.016 549.009C507.839 556.369 511.09 564.587 519.2 567.552C529.668 573.161 541.173 567.981 551.641 565.265C557.179 566.48 561.216 571.161 566.218 573.733C576.115 580.307 590.763 579.271 597.444 568.66C586.726 568.731 573.471 573.876 565.003 564.694C557.929 559.049 559.859 549.152 561.073 541.435C567.076 536.04 575.079 533.896 582.189 530.395C582.224 528.537 582.26 524.821 582.296 522.999C566.79 519.784 551.284 514.925 535.349 515.675Z"></path>
<path fill="#341B31" d="M467.895 401.953C470.503 384.803 491.297 373.227 506.231 383.874C508.554 389.484 507.625 395.772 508.125 401.738C494.727 403.025 481.257 403.132 467.895 401.953Z"></path>
<path fill="#CA919D" d="M794.199 426.212C804.774 408.813 810.133 383.803 832.606 378.158C832.785 380.874 832.999 383.589 833.285 386.376C834.107 393.986 835 401.631 836.393 409.206C841.967 441.54 851.971 473.445 850.613 506.672C852.757 550.474 843.11 595.17 820.816 633.113C812.741 647.368 799.522 657.658 785.302 665.339C783.48 658.908 781.694 652.549 779.943 646.189C807.275 619.322 815.743 579.521 814.814 542.435C816.136 502.741 808.49 463.155 794.199 426.212Z"></path>
<path fill="#58435D" d="M788.339 434.608C803.059 475.874 805.309 520.463 801.915 563.836C800.415 583.844 793.698 602.887 785.266 620.93C781.014 608.853 777.156 596.063 768.295 586.452C755.719 572.447 737.748 564.515 719.527 560.978C722.17 559.335 724.814 557.656 727.387 555.905C743.179 542.007 748.824 520.927 758.649 503.063C770.403 481.09 780.228 458.153 788.339 434.608Z"></path>
<path fill="#311D31" d="M437.597 457.081C452.174 438.895 482.722 434.001 500.371 450.614C509.768 458.439 508.732 471.622 509.446 482.662C505.087 476.231 501.014 469.693 496.656 463.369C492.19 457.581 486.473 453.008 480.721 448.721C485.616 456.474 491.082 463.905 496.727 471.158C497.013 478.339 497.62 485.521 498.192 492.738C482.007 496.954 464.643 495.917 450.031 487.307C444.314 483.984 438.705 480.411 433.203 476.803C434.382 470.193 434.025 462.94 437.597 457.081Z"></path>
<path fill="#E79FAC" d="M370.965 486.985C387.364 472.98 410.409 474.552 430.559 473.337C431.238 474.195 432.56 475.946 433.203 476.803C438.705 480.412 444.314 483.984 450.031 487.307C441.956 500.598 449.245 518.247 440.027 530.752C426.45 541.542 407.229 541.256 390.83 539.577C367.642 536.897 355.03 504.028 370.965 486.985Z"></path>
<path fill="#30192E" d="M658.396 509.887C674.259 493.881 702.985 494.703 717.776 511.816C729.388 523.392 727.53 540.935 727.387 555.905C724.814 557.655 722.171 559.335 719.527 560.978C718.348 561.121 715.954 561.407 714.739 561.55C704.235 562.729 693.695 563.515 683.191 563.872C670.401 560.013 658.539 553.118 650.786 542.007C651.536 531.145 649.464 518.033 658.396 509.887ZM680.798 507.136C695.125 511.995 706.307 522.678 712.238 536.576C713.775 536.719 716.883 536.969 718.419 537.076C715.418 529.609 713.489 520.891 706.7 515.854C699.233 510.209 689.515 509.566 680.798 507.136Z"></path>
<path fill="#301D31" d="M535.349 515.675C551.284 514.925 566.79 519.784 582.296 522.999C582.26 524.821 582.224 528.537 582.189 530.395C575.079 533.896 567.076 536.04 561.073 541.435C559.859 549.152 557.929 559.049 565.003 564.694C573.471 573.876 586.726 568.731 597.444 568.66C590.763 579.271 576.115 580.307 566.218 573.733C561.216 571.161 557.179 566.48 551.641 565.265C541.173 567.981 529.668 573.161 519.2 567.552C511.09 564.587 507.839 556.369 505.016 549.009C514.984 554.44 523.738 565.551 536.385 562.871C548.747 562.3 551.07 548.366 553.785 538.934C546.854 531.967 534.063 527.394 535.349 515.675Z"></path>
<path fill="#DDBEB5" d="M367.107 561.943C370.179 557.441 373.288 552.975 376.396 548.545C400.084 563.122 422.949 578.985 446.887 593.24C497.835 622.394 557.429 639.294 616.38 632.648C634.137 630.362 651.93 627.897 669.508 624.502C649.465 633.613 629.85 643.688 609.485 652.084C615.166 653.121 620.882 654.192 626.599 655.336C616.631 656.622 606.663 658.051 596.659 658.908C554 656.908 511.983 646.261 471.504 632.97C431.631 618.929 389.58 599.815 367.107 561.943Z"></path>
<path fill="#D997A1" d="M714.74 561.549C715.955 561.407 718.348 561.121 719.527 560.978C737.748 564.515 755.72 572.447 768.296 586.452C777.156 596.063 781.015 608.853 785.267 620.929C772.833 639.472 752.004 649.547 730.674 653.799C734.676 649.798 738.463 645.582 742.322 641.473C729.352 631.076 716.062 621.108 702.985 610.89C708.023 608.782 713.096 606.745 718.17 604.745C708.487 597.099 699.341 588.81 690.802 579.949C701.092 576.269 711.488 572.768 721.957 569.445C719.527 566.766 717.098 564.158 714.74 561.549Z"></path>
<path fill="#A8919D" d="M296.186 567.552C306.011 568.481 316.765 569.445 324.09 576.948C336.309 587.845 334.701 605.602 335.022 620.465C321.803 617.643 308.477 615.249 295.043 613.534C298.58 598.457 302.724 582.451 296.186 567.552Z"></path>
<path fill="#F6E4D5" d="M260.423 618.643C266.889 598.457 276.965 578.342 296.186 567.552C302.725 582.451 298.58 598.457 295.043 613.534C283.503 615.285 271.963 617.142 260.423 618.643Z"></path>
<path fill="#9AABB6" d="M361.497 578.449C377.932 594.598 394.117 611.64 415.482 621.394C494.762 661.159 584.94 675.629 673.045 673.414C710.095 672.878 747.93 665.661 779.943 646.189C781.693 652.549 783.48 658.908 785.302 665.339C729.352 691.671 665.292 691.885 604.84 687.419C546.21 683.453 488.367 668.733 434.703 644.903C410.516 633.899 386.078 620.644 369.857 598.957C365.105 593.026 363.391 585.523 361.497 578.449Z"></path>
<path fill="#FDFBF6" d="M353.78 594.526C356.995 604.173 356.066 614.498 357.996 624.395C362.319 638.436 372.001 649.833 381.719 660.48C373.144 671.734 365.892 684.132 355.388 693.779C351.029 660.98 351.35 627.432 353.78 594.526Z"></path>
<path fill="#9C81A3" d="M260.423 618.643C271.963 617.142 283.503 615.285 295.043 613.534C294.043 622.895 293.15 632.362 292.221 641.795C302.475 642.938 312.764 644.296 322.947 646.154C311.407 644.653 299.759 644.867 288.184 645.082C277.93 645.189 267.747 644.867 257.565 644.296C257.386 665.304 256.779 686.347 257.636 707.355C254.206 677.88 253.277 647.654 260.423 618.643Z"></path>
<path fill="#7B6684" d="M295.043 613.534C308.477 615.249 321.803 617.643 335.023 620.465C334.987 629.754 334.987 639.044 334.88 648.404C330.914 647.547 326.912 646.797 322.947 646.154C312.764 644.296 302.475 642.938 292.221 641.795C293.15 632.362 294.043 622.895 295.043 613.534Z"></path>
<path fill="#9EA9AF" d="M366.284 612.784C381.683 623.824 395.903 636.757 413.159 645.046C452.532 664.732 494.441 679.524 537.493 688.563C605.34 700.71 675.796 706.712 743.714 691.957C762.936 687.991 780.907 679.774 799.986 675.272C782.944 699.388 752.075 707.391 724.529 712.179C643.926 723.648 560.573 717.967 482.793 693.457C448.494 683.489 415.303 668.305 387.614 645.51C377.324 637.007 371.429 624.753 366.284 612.784Z"></path>
<path fill="#FBEFDB" d="M257.565 644.296C267.747 644.867 277.93 645.189 288.184 645.082C288.434 672.914 282.503 700.389 283.146 728.256C282.789 757.589 289.291 786.6 287.898 816.004C270.177 782.527 262.71 744.548 257.636 707.355C256.779 686.347 257.386 665.304 257.565 644.296Z"></path>
<path fill="#CF9FA0" d="M397.725 670.663C414.446 677.487 429.88 687.098 446.78 693.529C472.682 703.425 499.371 711.214 526.31 717.788C541.102 721.504 556.643 722.218 570.863 728.113L567.076 729.221C550.176 732.865 532.634 728.864 515.485 730.043C514.305 732.115 511.912 736.259 510.733 738.367C491.44 732.758 473.826 722.79 456.891 712.25C436.526 699.352 414.517 688.312 397.725 670.663Z"></path>
<path fill="#F9F1E3" d="M365.106 713.215C373.037 698.781 380.218 683.525 391.973 671.699C392.259 693.1 378.254 710.106 368.893 728.149C357.889 749.264 347.885 771.809 346.706 795.961C345.491 814.397 350.171 833.082 345.92 851.339C342.383 849.303 338.988 847.266 335.523 845.301C335.416 822.578 332.2 799.248 338.631 777.061C344.669 754.731 354.637 733.723 365.106 713.215Z"></path>
<path fill="#F4DECC" d="M716.168 725.898C723.921 724.183 731.746 722.183 739.82 722.183C749.574 727.256 756.505 736.474 765.152 743.226C780.407 757.232 798.486 767.486 816.671 777.168C827.568 783.849 840.002 789.851 847.147 800.927C851.185 805.536 847.326 810.859 845.932 815.683C834.428 807.501 822.816 797.104 807.775 797.497C817.35 807.43 831.498 812.86 837.572 825.937C818.994 835.547 797.092 831.153 780.193 820.22C760.507 808.787 740.892 796.211 725.779 778.919C718.241 770.737 715.811 759.59 714.168 748.979C713.882 746.728 713.31 742.262 713.024 740.047C713.56 737.296 714.668 731.829 715.204 729.078L716.168 725.898Z"></path>
<path fill="#D8AFA6" d="M570.863 728.113C581.652 724.79 592.907 728.327 603.839 729.042C641.247 732.043 679.011 731.221 716.168 725.898L715.204 729.078C695.41 741.368 679.654 758.589 664.22 775.774C631.85 760.447 594.908 752.837 567.075 729.221L570.863 728.113Z"></path>
<path fill="#C89695" d="M664.22 775.775C679.654 758.59 695.411 741.369 715.204 729.078C714.668 731.829 713.56 737.296 713.024 740.047C705.307 756.089 698.876 772.738 691.587 789.03C682.405 784.671 673.259 780.312 664.22 775.775Z"></path>
<path fill="#DBABA7" d="M437.562 807.394C444.457 783.778 420.198 761.733 432.274 739.118C437.312 745.299 442.278 751.694 446.744 758.411C444.814 776.811 461.535 789.458 470.217 803.892C459.284 804.857 448.387 805.929 437.562 807.394Z"></path>
<path fill="#CFB5AA" d="M525.524 743.011C557.286 743.69 585.797 759.375 614.451 771.272C609.163 776.06 603.84 780.847 598.445 785.528C594.336 784.206 590.263 782.955 586.19 781.74C587.048 778.132 587.941 774.559 588.834 771.058C567.898 761.304 546.639 752.301 525.524 743.011Z"></path>
<path fill="#F1D6C7" d="M792.162 744.155C824.282 740.368 860.331 747.049 883.018 771.808C891.093 781.276 903.312 791.494 900.382 805.428C881.482 815.968 863.582 798.461 851.077 785.921C834.142 768.128 808.597 762.269 792.162 744.155Z"></path>
<path fill="#CDA29F" d="M701.27 792.066C705.414 777.632 710.166 763.413 714.168 748.979C715.811 759.59 718.24 770.737 725.779 778.919C740.892 796.211 760.507 808.787 780.193 820.22C768.581 822.578 758.47 828.723 747.966 833.832C743.25 832.439 741.428 826.794 738.177 823.543C728.959 809.823 715.132 800.462 701.27 792.066Z"></path>
<path fill="#DDB6B0" d="M482.794 801.999C492.047 798.676 501.587 793.674 511.733 795.675C534.063 799.676 555.393 807.894 577.044 814.61C575.15 820.327 573.4 826.079 571.613 831.903C543.21 818.541 513.698 807.822 482.794 801.999Z"></path>
<path fill="#DBB8B0" d="M584.154 838.406C584.511 834.262 584.904 830.153 585.333 826.116C610.593 834.226 635.245 844.265 658.683 856.806C671.902 863.165 685.478 872.812 700.984 869.704L703.557 869.489C703.95 873.705 704.343 877.85 704.807 882.173C685.657 889.962 665.649 882.637 647.928 874.67C625.348 865.059 604.126 852.554 584.154 838.406Z"></path>
<path fill="#D8AEAB" d="M335.523 845.301C338.988 847.266 342.382 849.302 345.919 851.339C374.788 869.989 409.765 873.383 442.742 879.814C498.228 889.961 555.643 890.89 609.52 908.718C585.618 915.721 560.394 912.434 535.956 911.397C493.369 907.217 450.817 903.144 408.158 899.822C388.722 896.535 367.856 896.213 350.207 886.674C340.024 875.419 338.488 859.521 335.523 845.301Z"></path>
</svg>
