<svg xmlns="http://www.w3.org/2000/svg" fill="none" viewBox="0 0 1024 1024" height="1024" width="1024">
<rect fill="white" height="1024" width="1024"></rect>
<path fill="white" d="M745.809 549.789C756.256 551.757 766.325 555.315 775.939 560.085C769.58 574.62 755.953 583.25 743.387 591.88C743.841 577.724 744.749 563.718 745.809 549.789Z"></path>
<path fill="white" d="M331.032 586.733C338.072 579.768 341.025 562.28 353.97 567.655C358.058 576.815 361.464 586.505 364.871 596.12C353.591 593.016 342.236 589.836 331.032 586.733Z"></path>
<path fill="white" d="M385.689 867.061C473.126 882.959 564.424 883.413 651.256 863.428C648.984 893.709 648.379 926.639 668.062 952H366.612C392.275 931.106 385.84 895.904 385.689 867.061Z"></path>
<path fill="white" d="M709.774 924.974C714.089 934.891 719.54 944.505 727.791 952H688.88C696.526 943.445 703.339 934.286 709.774 924.974Z"></path>
<path fill="#FEFEFD" d="M351.775 303.603C402.799 278.697 466.314 328.509 457.456 383.848C455.261 439.339 384.176 474.314 339.662 439.944C289.774 408.982 297.42 325.33 351.775 303.603ZM390.156 333.203C391.519 346.451 390.838 359.396 379.558 368.783C371.988 361.743 364.569 354.778 357.15 347.889C335.574 366.285 334.742 404.061 361.238 418.369C391.595 440.172 436.865 413.373 434.746 376.808C436.714 351.069 412.337 336.534 390.156 333.203Z"></path>
<path fill="#37384D" d="M454.427 234.562C476.986 231.458 499.849 231.079 522.635 230.473C519.229 237.287 513.702 242.511 505.527 242.662C483.648 245.993 461.391 246.447 439.362 246.598C441.482 238.574 446.478 234.562 454.427 234.562Z"></path>
<path fill="#37384D" d="M359.041 288.31C410.595 272.11 469.038 315.034 469.871 368.934C476.23 419.807 431.716 469.999 379.784 465.911C323.31 468.03 279.932 406.786 295.451 353.718C303.475 322.831 327.095 295.275 359.041 288.31ZM351.774 303.603C297.419 325.329 289.773 408.981 339.662 439.944C384.175 474.313 455.26 439.338 457.456 383.848C466.313 328.509 402.798 278.696 351.774 303.603Z"></path>
<path fill="#37384D" d="M610.905 290.884C659.128 269.309 718.782 303.148 728.699 354.02C743.083 404.136 706.14 462.428 652.769 465.077C604.849 472.042 556.853 432.676 554.809 384.226C550.645 345.239 574.341 305.192 610.905 290.884ZM615.599 302.088C562.758 321.695 549.737 400.502 595.083 434.871C635.66 472.722 710.531 446.378 717.647 391.115C731.727 335.171 669.651 278.015 615.599 302.088Z"></path>
<path fill="#37384D" d="M493.869 443.426C481.832 432.524 500.985 419.731 513.022 424.5C514.384 433.584 505.527 459.021 493.869 443.426Z"></path>
<path fill="#37384D" d="M534.522 424.426C545.65 421.776 557.687 437.901 546.71 444.033C534.37 456.751 527.254 432.299 534.522 424.426Z"></path>
<path fill="#37384D" d="M189.088 792.267C195.599 756.838 246.244 775.914 233.451 805.817C222.095 829.285 191.738 815.356 190.905 792.342C199.233 793.175 217.704 817.248 222.246 800.518C228.833 777.504 199.611 785.226 189.088 792.267Z"></path>
<path fill="#FDFDFD" d="M472.748 575.15C491.522 580.525 489.176 605.507 495.156 620.421C480.091 618.907 465.178 617.318 450.264 615.425C456.396 601.42 458.667 583.705 472.748 575.15Z"></path>
<path fill="#FDFDFD" d="M658.219 621.102C661.626 604.977 659.128 582.796 675.707 573.56C694.406 574.09 696.071 598.013 701.597 611.412C687.214 615.046 672.754 618.074 658.219 621.102Z"></path>
<path fill="#FDFCFD" d="M473.277 520.947C495.004 519.66 516.731 518.07 538.382 516.026C531.569 535.709 522.257 554.71 508.328 570.608C487.737 561.826 480.621 540.024 473.277 520.947Z"></path>
<path fill="#FEFDFD" d="M615.599 302.089C669.651 278.015 731.728 335.171 717.647 391.116C710.531 446.379 635.661 472.723 595.084 434.872C549.738 400.502 562.759 321.696 615.599 302.089ZM646.486 330.629C643.383 341.758 652.24 361.743 636.569 365.604C628.848 360.456 621.429 355.006 614.237 349.479C594.1 371.206 599.55 410.723 629.605 420.337C667.759 437.673 709.623 390.737 690.47 354.475C682.824 336.988 663.52 332.673 646.486 330.629Z"></path>
<path fill="#FAB049" d="M365.174 103.746C438.985 86.3347 516.278 74.6772 591.678 88.4551C656.48 100.265 724.31 117.071 773.517 163.931C841.574 220.86 865.345 310.189 887.45 392.402C909.631 471.058 911.524 553.802 906.3 634.88C901.607 700.666 883.968 764.332 869.054 828.226C858.077 865.547 841.801 902.869 811.066 928.229C803.041 919.523 795.017 910.969 787.068 902.414C772.76 914.375 760.496 929.516 743.463 937.692C724.688 933.756 726.884 910.061 719.541 896.283C703.719 908.395 696.83 932.393 676.39 937.314C661.325 910.667 666.851 879.25 668.138 850.256C570.481 874.859 466.617 879.779 368.808 853.131C367.748 881.823 381.602 919.599 353.365 939.357C340.344 925.655 332.168 904.156 313.166 898.327C309.23 909.304 306.504 920.432 303.628 931.863C281.522 929.667 265.852 913.846 250.257 899.992C242.838 908.698 235.419 917.48 228 926.412C171.601 882.126 169.709 804.531 143.288 742.984C130.343 692.263 117.019 641.087 114.597 588.549C110.509 507.926 133.523 429.422 155.931 352.961C171.374 303.981 186.969 254.32 213.314 210.034C246.245 155.225 303.552 118.054 365.174 103.746ZM425.661 119.266C398.181 125.095 368.959 128.047 344.129 141.901C344.432 145.156 345.113 151.591 345.491 154.846C396.212 139.251 448.296 127.745 501.516 125.323C509.692 123.127 528.617 124.792 523.999 110.333C491.069 106.547 458.213 115.102 425.661 119.266ZM388.112 181.418C388.415 184.597 389.021 191.033 389.324 194.288C425.434 205.416 464.194 199.587 501.44 200.041C517.64 197.922 537.02 202.161 550.723 191.639C555.719 178.466 538.61 181.796 530.964 181.342C483.422 184.9 435.73 184.067 388.112 181.418ZM454.428 234.562C446.479 234.562 441.483 238.574 439.363 246.598C461.393 246.447 483.65 245.993 505.528 242.662C513.704 242.511 519.23 237.287 522.637 230.473C499.85 231.079 476.988 231.458 454.428 234.562ZM475.549 262.874C471.613 285.585 508.859 280.741 511.811 263.102C499.699 262.799 487.662 262.723 475.549 262.874ZM359.042 288.311C327.096 295.275 303.476 322.831 295.452 353.718C279.933 406.786 323.31 468.03 379.785 465.911C431.717 469.999 476.231 419.807 469.872 368.935C469.039 315.034 410.596 272.11 359.042 288.311ZM610.907 290.885C574.342 305.193 550.647 345.24 554.81 384.227C556.854 432.677 604.85 472.043 652.77 465.078C706.141 462.429 743.084 404.137 728.701 354.021C718.783 303.149 659.129 269.31 610.907 290.885ZM192.268 427.377C201.883 429.497 214.828 416.552 211.875 406.862C201.504 402.244 188.332 417.309 192.268 427.377ZM213.238 444.865C230.953 439.187 246.85 422.533 246.32 403.228C229.817 411.783 220.127 428.21 213.238 444.865ZM820.907 408.073C820.756 419.656 836.88 432.601 848.009 432.677C852.551 419.807 833.095 403.456 820.907 408.073ZM493.87 443.426C505.528 459.021 514.385 433.585 513.022 424.5C500.986 419.731 481.833 432.525 493.87 443.426ZM534.522 424.426C527.255 432.299 534.371 456.751 546.71 444.032C557.687 437.9 545.65 421.776 534.522 424.426ZM800.921 423.516C798.877 434.72 815.154 447.514 825.904 444.335C828.023 433.206 811.52 419.125 800.921 423.516ZM364.039 501.339C314.756 497.176 266.912 483.928 217.856 479.007C210.589 517.767 238.22 551.909 269.031 571.592C322.705 605.81 386.22 618.755 447.539 632.003C547.089 648.809 656.48 657.817 748.762 609.065C797.515 584.537 825.752 532.378 829.916 479.235C836.805 476.131 843.694 473.026 850.583 470.074C687.745 469.014 527.179 516.329 364.039 501.339ZM144.273 668.568C150.329 692.642 148.058 732.386 176.144 741.319C170.239 716.337 169.406 681.816 144.273 668.568ZM189.089 792.267C199.611 785.226 228.833 777.504 222.247 800.518C217.705 817.249 199.233 793.175 190.906 792.343C191.739 815.356 222.095 829.285 233.451 805.817C246.245 775.914 195.599 756.838 189.089 792.267ZM617.568 773.114C611.739 778.867 610.604 797.793 621.429 797.869C627.107 791.812 628.091 773.038 617.568 773.114Z"></path>
<path fill="#FEFDFC" d="M654.51 502.778C673.89 500.658 693.27 498.917 712.802 498.084C706.518 515.647 706.139 539.494 689.712 550.849C667.455 548.275 661.929 519.963 654.51 502.778Z"></path>
<path fill="#42453D" d="M289.319 121.99C369.943 84.2145 460.938 68.5438 549.586 72.6318C621.58 80.8834 695.542 95.9487 756.937 136.45C808.718 120.931 867.918 116.539 917.428 141.597C886.39 163.4 846.872 183.461 839.908 224.946C858.531 275.062 881.62 323.739 893.506 376.277C939.685 528.667 918.412 692.337 872.081 841.927C871.324 838.52 869.81 831.707 869.053 828.225C883.967 764.332 901.606 700.665 906.299 634.879C911.523 553.801 909.63 471.057 887.449 392.402C865.344 310.188 841.573 220.859 773.516 163.93C724.309 117.07 656.479 100.264 591.677 88.4544C516.277 74.6764 438.984 86.3339 365.173 103.746C303.551 118.054 246.244 155.224 213.313 210.033C186.968 254.319 171.374 303.981 155.93 352.961C133.522 429.421 110.508 507.925 114.596 588.549C117.019 641.087 130.342 692.262 143.288 742.983C140.941 741.318 136.247 737.987 133.901 736.321C106.345 652.745 94.3834 562.356 112.931 475.524C132.084 387.255 157.52 299.968 194.841 217.603C183.259 176.118 145.407 154.846 111.038 134.633L116.262 127.895C169.859 101.475 233.147 106.471 289.319 121.99ZM128.45 135.011C160.17 151.741 188.483 175.739 200.141 210.866C219.824 178.616 247.985 153.559 275.919 128.804C227.167 117.827 175.613 116.918 128.45 135.011ZM765.34 143.944C789.792 167.261 815.077 190.048 834.381 218.134C845.358 185.733 869.735 161.81 897.745 143.49C854.14 132.891 808.794 132.967 765.34 143.944Z"></path>
<path fill="#563B39" d="M425.66 119.265C458.213 115.101 491.068 106.546 523.999 110.331C528.617 124.791 509.691 123.126 501.515 125.321C448.296 127.744 396.212 139.25 345.491 154.845C345.112 151.59 344.431 145.155 344.128 141.9C368.959 128.046 398.18 125.094 425.66 119.265Z"></path>
<path fill="#FBB145" d="M128.449 135.011C175.612 116.918 227.166 117.827 275.919 128.804C247.984 153.559 219.823 178.616 200.14 210.866C188.482 175.74 160.169 151.742 128.449 135.011Z"></path>
<path fill="#FAB446" d="M765.34 143.944C808.793 132.967 854.139 132.891 897.744 143.49C869.734 161.81 845.358 185.733 834.381 218.134C815.077 190.048 789.792 167.261 765.34 143.944Z"></path>
<path fill="#3A2F3B" d="M388.111 181.417C435.729 184.067 483.422 184.9 530.963 181.342C538.609 181.796 555.718 178.466 550.722 191.638C537.019 202.161 517.639 197.921 501.439 200.041C464.193 199.587 425.433 205.416 389.323 194.287C389.02 191.032 388.414 184.597 388.111 181.417Z"></path>
<path fill="#724D2D" d="M475.548 262.874C487.66 262.723 499.697 262.799 511.81 263.102C508.857 280.741 471.611 285.585 475.548 262.874Z"></path>
<path fill="#FCFBF9" d="M272.89 500.507C291.513 503.762 310.136 507.244 328.684 511.105C323.233 527.76 318.388 546.61 303.475 557.739C274.859 559.253 277.508 519.508 272.89 500.507Z"></path>
<path fill="#FCFBF9" d="M367.898 517.312C387.278 518.751 406.734 520.114 426.189 521.325C416.651 536.844 413.093 559.328 395.681 568.11C376.453 559.101 375.469 534.421 367.898 517.312Z"></path>
<path fill="#3B3645" d="M390.155 333.203C412.336 336.534 436.713 351.069 434.744 376.808C436.864 413.372 391.594 440.171 361.237 418.369C334.741 404.061 335.573 366.285 357.149 347.889C364.568 354.778 371.986 361.742 379.557 368.783C390.837 359.396 391.518 346.451 390.155 333.203Z"></path>
<path fill="#3B3745" d="M646.486 330.629C663.52 332.673 682.824 336.988 690.47 354.475C709.623 390.737 667.759 437.673 629.605 420.337C599.55 410.723 594.1 371.206 614.237 349.479C621.429 355.006 628.848 360.456 636.569 365.604C652.24 361.743 643.383 341.758 646.486 330.629Z"></path>
<path fill="#5F4423" d="M192.268 427.377C188.331 417.308 201.503 402.244 211.875 406.862C214.827 416.552 201.882 429.497 192.268 427.377Z"></path>
<path fill="#85592E" d="M213.238 444.865C220.127 428.21 229.817 411.783 246.32 403.228C246.85 422.533 230.953 439.187 213.238 444.865Z"></path>
<path fill="#5C4428" d="M820.906 408.073C833.095 403.455 852.55 419.807 848.008 432.676C836.88 432.601 820.755 419.655 820.906 408.073Z"></path>
<path fill="#594025" d="M800.92 423.516C811.519 419.125 828.022 433.206 825.902 444.334C815.153 447.514 798.876 434.72 800.92 423.516Z"></path>
<path fill="#3B3845" d="M364.038 501.339C527.178 516.328 687.744 469.014 850.582 470.074C843.693 473.026 836.804 476.131 829.915 479.234C825.751 532.378 797.514 584.537 748.761 609.065C656.479 657.817 547.088 648.809 447.538 632.003C386.219 618.755 322.704 605.81 269.03 571.592C238.219 551.909 210.588 517.767 217.855 479.007C266.911 483.928 314.755 497.175 364.038 501.339ZM747.777 492.028C752.925 506.336 759.662 534.724 780.632 527.684C789.565 517.464 791.23 503.459 795.318 491.195C779.421 490.892 763.599 491.271 747.777 492.028ZM654.511 502.778C661.929 519.963 667.456 548.275 689.712 550.849C706.14 539.494 706.519 515.648 712.802 498.084C693.271 498.917 673.891 500.658 654.511 502.778ZM272.891 500.507C277.509 519.508 274.86 559.253 303.475 557.739C318.389 546.61 323.234 527.76 328.684 511.105C310.137 507.244 291.514 503.762 272.891 500.507ZM571.161 512.392C580.473 527.609 581.911 562.054 606.136 557.663C617.794 541.916 624.305 523.293 630.967 505.2C610.981 507.093 591.071 509.667 571.161 512.392ZM367.899 517.312C375.469 534.421 376.453 559.101 395.682 568.11C413.093 559.328 416.651 536.844 426.19 521.325C406.734 520.114 387.279 518.751 367.899 517.312ZM473.277 520.947C480.621 540.024 487.737 561.826 508.328 570.608C522.257 554.71 531.569 535.709 538.382 516.026C516.731 518.07 495.004 519.66 473.277 520.947ZM745.809 549.789C744.749 563.719 743.84 577.724 743.386 591.881C755.953 583.251 769.579 574.62 775.938 560.085C766.324 555.316 756.256 551.758 745.809 549.789ZM331.031 586.732C342.235 589.836 353.591 593.016 364.87 596.12C361.464 586.505 358.057 576.815 353.969 567.655C341.024 562.28 338.071 579.768 331.031 586.732ZM472.747 575.15C458.667 583.704 456.395 601.419 450.264 615.424C465.177 617.317 480.091 618.906 495.156 620.42C489.175 605.506 491.522 580.525 472.747 575.15ZM658.22 621.102C672.755 618.074 687.214 615.046 701.598 611.412C696.072 598.012 694.406 574.09 675.707 573.56C659.128 582.796 661.627 604.977 658.22 621.102ZM568.512 627.764C584.485 627.385 600.383 626.78 616.356 625.871C613.707 608.308 615.296 588.398 602.048 574.772C582.895 586.43 576.234 608.081 568.512 627.764Z"></path>
<path fill="#FDFCFB" d="M747.777 492.028C763.599 491.27 779.421 490.892 795.318 491.195C791.23 503.459 789.565 517.463 780.632 527.683C759.662 534.724 752.925 506.335 747.777 492.028Z"></path>
<path fill="#FDFCFB" d="M571.161 512.392C591.071 509.667 610.981 507.093 630.967 505.2C624.305 523.293 617.794 541.916 606.136 557.663C581.911 562.054 580.473 527.609 571.161 512.392Z"></path>
<path fill="#FDFDFB" d="M568.512 627.764C576.234 608.081 582.896 586.43 602.049 574.772C615.297 588.398 613.707 608.308 616.357 625.871C600.383 626.78 584.486 627.386 568.512 627.764Z"></path>
<path fill="#755236" d="M144.271 668.568C169.404 681.816 170.237 716.337 176.142 741.319C148.056 732.386 150.327 692.642 144.271 668.568Z"></path>
<path fill="#352E3D" d="M133.9 736.322C136.246 737.987 140.94 741.318 143.287 742.984C169.707 804.53 171.6 882.126 227.999 926.412C235.417 917.479 242.836 908.698 250.255 899.992C265.85 913.846 281.521 929.667 303.626 931.863C306.503 920.431 309.228 909.304 313.165 898.327C332.166 904.156 340.342 925.655 353.363 939.357C381.6 919.599 367.747 881.823 368.806 853.131C466.615 879.779 570.479 874.859 668.136 850.255C666.849 879.25 661.323 910.666 676.388 937.314C696.828 932.393 703.717 908.395 719.539 896.283C726.882 910.06 724.687 933.755 743.461 937.692C760.494 929.516 772.758 914.375 787.066 902.414C795.015 910.968 803.039 919.523 811.064 928.229C841.799 902.868 858.076 865.547 869.053 828.225C869.81 831.708 871.324 838.521 872.081 841.927C862.239 876.978 848.461 914.452 818.634 937.314C807.279 948.367 794.334 935.118 783.962 930.273C775.332 937.541 766.702 944.732 757.845 952H727.79C719.539 944.505 714.088 934.891 709.773 924.974C703.338 934.286 696.525 943.445 688.879 952H668.061C648.378 926.639 648.984 893.709 651.255 863.428C564.423 883.413 473.125 882.959 385.688 867.061C385.839 895.904 392.274 931.106 366.611 952H350.562C342.007 943.37 334.21 934.134 326.564 924.974C320.053 933.907 314.83 944.657 304.837 950.486C286.139 951.925 271.528 937.843 256.387 929.365C246.016 933.907 233.676 946.928 222.548 936.708C191.434 914.072 177.126 876.07 166.755 840.489C157.292 805.287 144.498 771.145 133.9 736.322Z"></path>
<path fill="#D4943F" d="M617.568 773.114C628.091 773.038 627.107 791.813 621.429 797.869C610.603 797.793 611.739 778.867 617.568 773.114Z"></path>
</svg>
