<?xml version="1.0" standalone="no"?><!DOCTYPE svg PUBLIC "-//W3C//DTD SVG 1.1//EN" "http://www.w3.org/Graphics/SVG/1.1/DTD/svg11.dtd"><svg t="1730176433094" class="icon" viewBox="0 0 1024 1024" version="1.1" xmlns="http://www.w3.org/2000/svg" p-id="3144" width="13" height="13" xmlns:xlink="http://www.w3.org/1999/xlink"><path d="M570.88 512L925.44 157.44a41.6 41.6 0 0 0-58.88-58.88L512 453.12 157.44 98.56a41.6 41.6 0 0 0-58.88 58.88L453.12 512 98.56 866.56a41.6 41.6 0 0 0 0 58.88 41.6 41.6 0 0 0 58.88 0L512 570.88l354.56 354.56a41.6 41.6 0 0 0 58.88 0 41.6 41.6 0 0 0 0-58.88z" p-id="3145" fill="#cdcdcd"></path></svg>